<?xml version="1.0" encoding="iso-8859-1"?>
<!-- Generator: Adobe Illustrator 19.0.0, SVG Export Plug-In . SVG Version: 6.00 Build 0)  -->
<!DOCTYPE svg PUBLIC "-//W3C//DTD SVG 1.1//EN" "http://www.w3.org/Graphics/SVG/1.1/DTD/svg11.dtd">
<?xml-stylesheet type="text/css" href="style.css" ?>
<svg version="1.1" id="Capa_1" xmlns="http://www.w3.org/2000/svg" xmlns:xlink="http://www.w3.org/1999/xlink" x="0px" y="0px"
	 viewBox="0 0 431.76 431.76" style="enable-background:new 0 0 431.76 431.76;" xml:space="preserve" shape-rendering="geometricPrecision">
<g>
	<g>
		<path d="M215.88,85.12C153.556,85.164,103.044,135.676,103,198c0.557,40.682,20.351,78.696,53.36,102.48V382
			c0.027,0.932,0.216,1.853,0.56,2.72v0.64c0.138,0.33,0.299,0.651,0.48,0.96l28.16,41.92c1.49,2.205,3.979,3.524,6.64,3.52h46.56
			c2.661,0.004,5.15-1.315,6.64-3.52l28.16-41.92c0.181-0.309,0.342-0.63,0.48-0.96v-0.64c0.344-0.867,0.533-1.788,0.56-2.72v-81.52
			c33.01-23.784,52.803-61.798,53.36-102.48C327.918,135.987,277.891,85.603,215.88,85.12z M234.92,416h-38.08l-17.44-25.92h72.88
			L234.92,416z M172.44,374.08v-21.2h86.88l0.08,21.2H172.44z M263,289.52l0,0.24c-2.259,1.487-3.613,4.015-3.6,6.72v40.64h-86.96
			V296c0.013-2.705-1.341-5.233-3.6-6.72c-30.628-20.467-49.233-54.687-49.76-91.52c1.537-53.483,46.14-95.594,99.623-94.057
			c51.323,1.475,92.582,42.734,94.057,94.057C312.312,234.679,293.697,269.005,263,289.52z"/>
	</g>
</g>
<g>
	<g>
		<path d="M219.08,121.36c-4.418,0-8,3.582-8,8s3.582,8,8,8c33.251,0.044,60.196,26.989,60.24,60.24c0,4.418,3.582,8,8,8
			s8-3.582,8-8C295.276,155.512,261.168,121.404,219.08,121.36z"/>
	</g>
</g>
<g>
	<g>
		<path d="M81.48,189.6h-57.6c-4.418,0-8,3.582-8,8s3.582,8,8,8h57.6c4.418,0,8-3.582,8-8c0,0,0,0,0,0
			C89.48,193.182,85.898,189.6,81.48,189.6z"/>
	</g>
</g>
<g>
	<g>
		<path d="M407.88,189.6h-57.6c-4.418,0-8,3.582-8,8s3.582,8,8,8h57.6c4.418,0,8-3.582,8-8S412.298,189.6,407.88,189.6z"/>
	</g>
</g>
<g>
	<g>
		<path d="M127.313,287.12c-2.874-3.356-7.924-3.747-11.28-0.873c-0.313,0.268-0.605,0.56-0.873,0.873v-0.16L74.28,328
			c-3.356,2.874-3.747,7.924-0.873,11.28c2.874,3.356,7.924,3.747,11.28,0.873c0.313-0.268,0.605-0.56,0.873-0.873l40.88-40.88
			C129.796,295.526,130.187,290.476,127.313,287.12z"/>
	</g>
</g>
<g>
	<g>
		<path d="M356.607,56c-2.995-2.565-7.412-2.565-10.407,0l-40.88,40.88c-3.137,3.111-3.158,8.177-0.047,11.314
			c1.513,1.526,3.577,2.379,5.727,2.366l-0.08-0.08c2.126,0.012,4.17-0.823,5.68-2.32l40.88-40.88
			C360.354,63.924,359.963,58.874,356.607,56z"/>
	</g>
</g>
		<path d="M196.54,401.991h-54.817V9.136c0-2.663-0.854-4.856-2.568-6.567C137.441,0.859,135.254,0,132.587,0H77.769
			c-2.663,0-4.856,0.855-6.567,2.568c-1.709,1.715-2.568,3.905-2.568,6.567v392.855H13.816c-4.184,0-7.04,1.902-8.564,5.708
			c-1.525,3.621-0.855,6.95,1.997,9.996l91.361,91.365c2.094,1.707,4.281,2.562,6.567,2.562c2.474,0,4.665-0.855,6.567-2.562
			l91.076-91.078c1.906-2.279,2.856-4.571,2.856-6.844c0-2.676-0.859-4.859-2.568-6.584
			C201.395,402.847,199.208,401.991,196.54,401.991z"/>
		<path d="M504.604,441.109c-1.715-1.718-3.901-2.573-6.567-2.573H260.497c-2.666,0-4.853,0.855-6.567,2.573
			c-1.709,1.711-2.568,3.901-2.568,6.564v54.815c0,2.673,0.855,4.853,2.568,6.571c1.715,1.711,3.901,2.566,6.567,2.566h237.539
			c2.666,0,4.853-0.855,6.567-2.566c1.711-1.719,2.566-3.898,2.566-6.571v-54.815C507.173,445.011,506.314,442.82,504.604,441.109z"
			/>
		<path d="M260.494,365.445H443.22c2.663,0,4.853-0.855,6.57-2.566c1.708-1.711,2.563-3.901,2.563-6.563v-54.823
			c0-2.662-0.855-4.853-2.563-6.563c-1.718-1.711-3.907-2.566-6.57-2.566H260.494c-2.666,0-4.853,0.855-6.567,2.566
			c-1.71,1.711-2.568,3.901-2.568,6.563v54.823c0,2.662,0.855,4.853,2.568,6.563C255.641,364.59,257.828,365.445,260.494,365.445z"
			/>
</svg>
